/* XPM */
static char * backgroundtile_xpm[] = {
"90 90 11 1",
" 	c #FFFFFF",
".	c #FFFEFF",
"+	c #FEFEFE",
"@	c #FEFDFD",
"#	c #FEFDFE",
"$	c #FEFCFD",
"%	c #FFFDFE",
"&	c #FFFEFE",
"*	c #FFFDFF",
"=	c #F8F7F8",
"-	c #F2F1F2",
"                                                                                    ......",
"                                                                                    ......",
"                                                                                          ",
"                                                                                          ",
"                                                                                          ",
"                                                                                          ",
"                                                                                          ",
"                                                                                          ",
"                                                                                          ",
"                                                                                          ",
"                                                                                          ",
"                                                                                          ",
"                                                             +                            ",
"                                                             ++++++                       ",
"                                                             +++++++                      ",
"                                                            ++++++++                      ",
"                                                            +++++++                       ",
"                                                            +@#++++                       ",
"                                                            #$#%.                         ",
"                                                            $$%&.                         ",
"                                                            $%%.                          ",
"                                                            #%%.                          ",
"                                                           .%%..                          ",
"                                                            *...                          ",
"                                                           .*......                 ......",
"                                                          +**.......                ......",
"                                                          =**.......                ......",
"                                                          -**.......                ......",
"                                                           **.......                ......",
"                                                            **......                ......",
"                                                            ***.....                ......",
"                                                            .***....                ......",
"                                                            .***....                ......",
"                                                             ***....                ......",
"                                                             **.....                ......",
"                                                             .......                ......",
"                                                             ......                 ......",
"                                                             ....                         ",
"                                                             ...                          ",
"                                                             ...                          ",
"                                                             ..                           ",
"                                                                                          ",
"                                                                                          ",
"                                                             ...                          ",
"                                                             ...                          ",
"                                                              ..                          ",
"                                                               .                          ",
"                                                               .                          ",
"                                                               .                          ",
"                                                               ...                        ",
"                                                                ...                       ",
"                                                                ....                      ",
"                                                                ....                      ",
"                                                                ....                      ",
"                                                                 ...                      ",
"                                                                 ...                      ",
"                                                                 ...                      ",
"                                                                ....                      ",
"                                                                ....                      ",
"                                                                ....                      ",
"                                                                ....                      ",
"                                                                ...                       ",
"                                                                ...                       ",
"                                                                .                   ......",
"                                                                                    ......",
"                                                                                    ......",
"                                                                                    ......",
"                                                                                    ......",
"                                                                                    ......",
"                                                                                    ......",
"                                                                                    ......",
"                                                                                    ......",
"                                                                                    ......",
"                                                                                    ......",
"                                                                                    ......",
"                                                                                    ......",
"                                                                                          ",
"                                                                                          ",
"                                                                                          ",
"                                                                                          ",
"                                                                                          ",
"                                                                                          ",
"                                                               +                          ",
"                                                               +                          ",
"                                                               +                          ",
"                                                               +                          ",
"                                                               +                          ",
"                                                               +                          ",
"                                                                                          ",
"                                                                                          "};
